/* XPM */
static char *test_xpm[] = {
"8 64 2 1",
"0	c #000000",
"1	c #FFFFFF",
"00000111",
"00011111",
"00111111",
"01111111",
"01111111",
"11000011",
"11000011",
"11000011",
"01000011",
"01111111",
"11111111",
"11111111",
"11111111",
"11111111",
"11111111",
"11111111",
"01111111",
"01000011",
"11011011",
"11011011",
"11011011",
"11011011",
"11011011",
"11011011",
"01011011",
"01011011",
"11011011",
"11011011",
"11011011",
"11000011",
"11111111",
"11111111",
"11100000",
"11111000",
"11111100",
"11111110",
"11111110",
"11000011",
"11000011",
"11000011",
"11000011",
"11111111",
"11111111",
"11111111",
"11111111",
"11110001",
"11111101",
"11111111",
"11111111",
"11000011",
"11011011",
"11011011",
"11011011",
"11011011",
"11011011",
"11011011",
"11011011",
"11011011",
"11011011",
"11011011",
"11011011",
"11000011",
"11111111",
"11111111"
};
